# xmcd
#
# Track frame offsets:
#	150
#	12566
#	33617
#	50849
#	67565
#	82716
#	100172
#	117149
#	132394
#	148043
#	162413
#	174870
#	190188
#	203936
#	221504
#	237646
#	256433
#	269504
#	285269
#	302928
#
# Disc length: 4257 seconds
#
# Revision: 0
# Processed by: cddbd v1.4PL0 Copyright (c) Steve Scherf et al.
# Submitted via: dBpowerAMP V4.0
#
DISCID=23109f14
DTITLE=LOS ROMEROS DE LA PUEBLA - ANTOLOGIA CD1
DYEAR=1900
DGENRE=SEVILLANA
TTITLE0=01 el embarque del ganao
TTITLE1=02 solano de la marismas
TTITLE2=03 triana pasa por gato
TTITLE3=04 guadalquivir
TTITLE4=05 tengo en mi casa un tambor
TTITLE5=06 mala "partia"
TTITLE6=07 amor en su medida
TTITLE7=08 cosas del camino
TTITLE8=09 en libertad
TTITLE9=10 llena mi vaso
TTITLE10=11 mi caballo está inquieto
TTITLE11=12 tus ojos verdes
TTITLE12=13_el romerito
TTITLE13=14_las - tres_morenas
TTITLE14=15_sevilla_se_nos_va
TTITLE15=16_la virgen viene a mi casa
TTITLE16=17_marineras de Cádiz
TTITLE17=18_cruzando el quema
TTITLE18=19_piropos a Málaga
TTITLE19=20_20 años de romero
EXTD=
EXTT0=
EXTT1=
EXTT2=
EXTT3=
EXTT4=
EXTT5=
EXTT6=
EXTT7=
EXTT8=
EXTT9=
EXTT10=
EXTT11=
EXTT12=
EXTT13=
EXTT14=
EXTT15=
EXTT16=
EXTT17=
EXTT18=
EXTT19=
PLAYORDER=
